# xmcd
#
# Track frame offsets:
#	150
#	14289
#	26625
#	39305
#	52613
#	67111
#	78721
#	92453
#	104548
#	119942
#	133058
#	145873
#	158173
#	171133
#	185344
#	199600
#	220053
#	232495
#	246982
#	260699
#	273604
#	287014
#	300429
#	326251
#	341210
#
# Disc length: 4684 seconds
#
# Revision: 0
# Processed by: cddbd v1.5.1PL2 Copyright (c) Steve Scherf et al.
# Submitted via: dBpowerAMP V4.0
#
DISCID=78124a19
DTITLE=Blues - The musicotheque - Blues - The musicotheque
DYEAR=1900
DGENRE=Blues
TTITLE0=My favourite blues - Benny Carter
TTITLE1=Basin street blues - Louis Armstrong
TTITLE2=Swinging the blues- Count Basie
TTITLE3=Blues in thirds - Sidney Bechet w Earl Hines
TTITLE4=Bundle of blues (Dragon blues) - Duke Ellington
TTITLE5=I'll chase the blues away - Ella Fitzgerald
TTITLE6=Royal garden blues - Bix Beiderbecke
TTITLE7=Wabash blues - Charleston Chasers
TTITLE8=Just another blues - Nat King Cole
TTITLE9=Singin' the blues - Lionel Hampton
TTITLE10=Stringin' the blues - Eddie Lag and Joe Venuti
TTITLE11=I got a right to sing the blues - Billie Holiday
TTITLE12=Bill street blues - Bill Coleman and his Orchestra
TTITLE13=Just blues - Fletcher Henderson
TTITLE14=Wildman blues - Johnny Dodds black bottom Stompers
TTITLE15=St Louis blues - Bing Crosby
TTITLE16=Fiddle blues - Stephane Grapelli
TTITLE17=Honky tonk train blues - Bob Crosby and his Orchestra
TTITLE18=Goodbye blues - Mills brothers
TTITLE19=Limehouse blues - Glenn Miller
TTITLE20=Jelly roll blues - Jelly Roll Morton
TTITLE21=Jazz me blues - Original Dixieland Jazz Band
TTITLE22=Blues. The - Artie Shaw
TTITLE23=Dallas blues - Fats Waller
TTITLE24=Farewell blues - Benny Goodman
EXTD=Blues - The musicotheque (78:01)
EXTT0=
EXTT1=
EXTT2=
EXTT3=
EXTT4=
EXTT5=
EXTT6=
EXTT7=
EXTT8=
EXTT9=
EXTT10=
EXTT11=
EXTT12=
EXTT13=
EXTT14=
EXTT15=
EXTT16=
EXTT17=
EXTT18=
EXTT19=
EXTT20=
EXTT21=
EXTT22=
EXTT23=
EXTT24=
PLAYORDER=
